<?xml version="1.0" encoding="utf-8"?>
<!-- Generator: Adobe Illustrator 25.0.0, SVG Export Plug-In . SVG Version: 6.00 Build 0)  -->
<svg version="1.1" id="Layer_1" xmlns="http://www.w3.org/2000/svg" xmlns:xlink="http://www.w3.org/1999/xlink" x="0px" y="0px"
	 viewBox="0 0 1080 1080" style="enable-background:new 0 0 1080 1080;" xml:space="preserve">
<style type="text/css">
	.st0{fill:#DC3231;}
</style>
<g>
	<g>
		<g>
			<path class="st0" d="M789.91,904.65H633.94c-1.14,0-2.15-0.72-2.53-1.8L524.69,597.82c-0.2-0.57-0.2-1.19,0-1.77l48.06-138.34
				c0.37-1.08,1.39-1.8,2.53-1.8c0,0,0,0,0,0c1.14,0,2.15,0.72,2.53,1.8l129.5,370.12h154.07c1.08,0,2.06,0.65,2.48,1.66
				c0.41,1,0.19,2.15-0.58,2.92l-71.46,71.46C791.3,904.37,790.62,904.65,789.91,904.65z M635.84,899.29H788.8l66.1-66.1H705.4
				c-1.14,0-2.15-0.72-2.53-1.8L575.29,466.73l-45.23,130.2L635.84,899.29z M374.61,904.65H218.64c-1.15,0-2.18-0.74-2.54-1.84
				L0.14,252.19c-0.32-0.96-0.07-2.02,0.65-2.74l71.46-71.46c0.66-0.66,1.6-0.93,2.51-0.71c0.9,0.21,1.63,0.88,1.93,1.76
				l215.35,648.79h154.04c1.08,0,2.06,0.65,2.48,1.66c0.41,1,0.19,2.15-0.58,2.92l-71.46,71.46
				C376,904.37,375.32,904.65,374.61,904.65z M220.58,899.29H373.5l66.1-66.1H290.1c-1.15,0-2.18-0.74-2.54-1.84L72.97,184.85
				L5.75,252.07L220.58,899.29z M375.93,556.33c-0.01,0-0.02,0-0.04,0c-1.17-0.02-2.19-0.79-2.53-1.91l-22.72-75.46
				c-0.16-0.53-0.15-1.09,0.02-1.62l75.85-228.69c0.13-0.4,0.35-0.76,0.65-1.05l71.46-71.46c0.88-0.88,2.25-1.04,3.3-0.39
				c1.06,0.65,1.53,1.95,1.14,3.13L378.47,554.49C378.11,555.59,377.08,556.33,375.93,556.33z M356.02,478.23l20.03,66.53
				l118.36-356.83l-63.01,63.01L356.02,478.23z M779.22,556.33c-1.15,0-2.18-0.74-2.54-1.84l-26.17-78.9
				c-0.17-0.52-0.18-1.09-0.02-1.62l67.29-223.4c0.13-0.42,0.36-0.81,0.67-1.12l71.46-71.46c0.87-0.87,2.22-1.04,3.27-0.41
				c1.06,0.63,1.55,1.9,1.19,3.07L781.79,554.42c-0.34,1.12-1.36,1.89-2.53,1.91C779.25,556.33,779.24,556.33,779.22,556.33z
				 M755.87,474.7l23.23,70.05l107.07-355.45l-63.45,63.45L755.87,474.7z"/>
		</g>
	</g>
	<g>
		<g>
			<path class="st0" d="M861.37,833.19H705.4c-1.14,0-2.15-0.72-2.53-1.8L575.29,466.73L448.61,831.39c-0.38,1.08-1.39,1.8-2.53,1.8
				H290.1c-1.15,0-2.18-0.74-2.54-1.84L71.6,180.72c-0.27-0.82-0.13-1.71,0.37-2.41c0.5-0.7,1.31-1.11,2.17-1.11h189.19
				c1.18,0,2.23,0.77,2.57,1.91l89.87,298.31l20.28,67.34l121.92-367.57c0.36-1.1,1.39-1.84,2.54-1.84h154.12
				c1.16,0,2.18,0.74,2.54,1.84L755.6,473.9l23.5,70.86l110.15-365.65c0.34-1.13,1.38-1.91,2.57-1.91h185.5
				c0.86,0,1.67,0.41,2.17,1.11c0.5,0.7,0.64,1.6,0.37,2.41L863.92,831.35C863.55,832.45,862.53,833.19,861.37,833.19z
				 M707.3,827.83h152.13l214.17-645.26H893.81L781.79,554.42c-0.34,1.12-1.36,1.89-2.53,1.91c-1.11-0.01-2.21-0.73-2.58-1.84
				L652.7,180.71H502.45L378.47,554.49c-0.37,1.11-1.45,1.83-2.58,1.84c-1.17-0.02-2.19-0.79-2.53-1.91l-22.72-75.46l-89.29-296.4
				H77.86l214.18,645.26h152.13l128.57-370.12c0.37-1.08,1.39-1.8,2.53-1.8c0,0,0,0,0,0c1.14,0,2.15,0.72,2.53,1.8L707.3,827.83z"/>
		</g>
	</g>
</g>
</svg>
