<?xml version="1.0" encoding="utf-8"?>
<!-- Generator: Adobe Illustrator 25.0.0, SVG Export Plug-In . SVG Version: 6.00 Build 0)  -->
<svg version="1.1" id="Layer_1" xmlns="http://www.w3.org/2000/svg" xmlns:xlink="http://www.w3.org/1999/xlink" x="0px" y="0px"
	 viewBox="0 0 1080 1080" style="enable-background:new 0 0 1080 1080;" xml:space="preserve">
<style type="text/css">
	.st0{fill:#DC3231;}
</style>
<g>
	<path class="st0" d="M1079.97,180.81c0.03-0.21,0.04-0.42,0.03-0.63c0-0.09,0-0.18-0.01-0.27c-0.04-0.3-0.1-0.6-0.22-0.88
		c0,0,0,0,0-0.01c-0.09-0.22-0.21-0.42-0.34-0.61c-0.02-0.02-0.02-0.05-0.04-0.07c-0.01-0.02-0.03-0.03-0.05-0.05
		c-0.14-0.19-0.29-0.36-0.47-0.51c-0.03-0.02-0.06-0.04-0.09-0.07c-0.16-0.13-0.34-0.25-0.52-0.35c-0.03-0.02-0.06-0.04-0.1-0.06
		c-0.2-0.1-0.42-0.18-0.64-0.24c-0.05-0.01-0.1-0.02-0.14-0.03c-0.23-0.05-0.46-0.08-0.71-0.08H891.4c-0.21,0-0.41,0.02-0.61,0.06
		c-0.06,0.01-0.12,0.03-0.18,0.04c-0.14,0.03-0.27,0.07-0.4,0.12c-0.07,0.03-0.13,0.05-0.19,0.08c-0.12,0.06-0.24,0.12-0.36,0.19
		c-0.06,0.04-0.12,0.07-0.17,0.11c-0.14,0.1-0.27,0.2-0.39,0.32c-0.02,0.02-0.04,0.03-0.06,0.05l-0.03,0.03c0,0,0,0,0,0
		l-71.35,71.35c0,0,0,0.01-0.01,0.01c-0.21,0.22-0.39,0.47-0.54,0.74c-0.02,0.03-0.04,0.06-0.05,0.09
		c-0.09,0.18-0.18,0.37-0.24,0.57l-64.16,213.01l-94.97-286.31c-0.02-0.06-0.05-0.11-0.07-0.16c-0.01-0.02-0.01-0.04-0.02-0.06
		c-0.02-0.05-0.05-0.09-0.07-0.13c-0.03-0.07-0.07-0.15-0.11-0.22c-0.05-0.08-0.09-0.16-0.15-0.23c-0.04-0.06-0.09-0.13-0.13-0.19
		c-0.06-0.07-0.12-0.14-0.18-0.21c-0.05-0.05-0.1-0.11-0.15-0.16c-0.07-0.07-0.14-0.13-0.22-0.19c-0.06-0.04-0.11-0.09-0.17-0.13
		c-0.08-0.06-0.17-0.1-0.25-0.15c-0.06-0.03-0.12-0.07-0.18-0.1c-0.09-0.04-0.19-0.08-0.28-0.12c-0.06-0.02-0.12-0.05-0.19-0.07
		c-0.11-0.03-0.22-0.06-0.33-0.08c-0.06-0.01-0.11-0.03-0.17-0.04c-0.17-0.03-0.34-0.04-0.52-0.04H500.57
		c-0.21,0-0.41,0.02-0.6,0.06c-0.06,0.01-0.12,0.03-0.18,0.04c-0.14,0.03-0.27,0.07-0.4,0.12c-0.06,0.02-0.13,0.05-0.19,0.08
		c-0.13,0.06-0.25,0.12-0.37,0.2c-0.05,0.03-0.1,0.06-0.15,0.09c-0.16,0.11-0.32,0.24-0.46,0.38c0,0,0,0-0.01,0l-71.36,71.36
		c0,0-0.01,0.01-0.01,0.01l-0.01,0.01c0,0,0,0.01-0.01,0.01c-0.23,0.23-0.42,0.49-0.57,0.78c0,0.01-0.01,0.01-0.01,0.02
		c-0.09,0.16-0.16,0.33-0.22,0.51l-72.43,218.37l-86.7-287.82c-0.02-0.08-0.06-0.16-0.09-0.24c-0.01-0.03-0.01-0.05-0.02-0.08
		c-0.01-0.04-0.04-0.07-0.05-0.1c-0.03-0.07-0.07-0.14-0.1-0.21c-0.05-0.09-0.09-0.17-0.15-0.25c-0.04-0.06-0.09-0.12-0.13-0.18
		c-0.06-0.08-0.12-0.15-0.18-0.22c-0.05-0.05-0.1-0.11-0.15-0.16c-0.07-0.07-0.14-0.13-0.22-0.19c-0.06-0.05-0.11-0.09-0.17-0.13
		c-0.08-0.06-0.17-0.11-0.25-0.16c-0.06-0.04-0.12-0.07-0.18-0.1c-0.09-0.05-0.19-0.08-0.28-0.12c-0.06-0.02-0.13-0.05-0.19-0.07
		c-0.11-0.03-0.22-0.06-0.33-0.08c-0.06-0.01-0.11-0.03-0.17-0.04c-0.17-0.03-0.35-0.04-0.52-0.04H74.72
		c-0.25,0-0.49,0.03-0.73,0.09c-0.08,0.02-0.15,0.05-0.22,0.07c-0.16,0.05-0.31,0.1-0.46,0.17c-0.08,0.04-0.16,0.08-0.24,0.13
		c-0.13,0.08-0.26,0.16-0.39,0.26c-0.07,0.06-0.15,0.11-0.21,0.18c-0.04,0.03-0.08,0.06-0.11,0.09L0.98,249.32
		c-0.05,0.05-0.07,0.1-0.11,0.15c-0.08,0.09-0.17,0.16-0.23,0.26c-0.06,0.08-0.09,0.17-0.14,0.25c-0.05,0.09-0.11,0.18-0.15,0.27
		c-0.09,0.2-0.16,0.4-0.22,0.61c-0.02,0.08-0.05,0.16-0.07,0.24c-0.05,0.29-0.07,0.59-0.05,0.89c0,0.04,0.02,0.07,0.02,0.11
		c0.03,0.22,0.06,0.43,0.13,0.64l215.69,649.84c0.02,0.06,0.05,0.11,0.07,0.16c0.01,0.02,0.01,0.04,0.02,0.06
		c0.02,0.05,0.05,0.09,0.07,0.13c0.04,0.08,0.07,0.15,0.11,0.22c0.04,0.08,0.09,0.15,0.14,0.23c0.05,0.07,0.09,0.13,0.14,0.2
		c0.06,0.07,0.12,0.14,0.18,0.2c0.05,0.06,0.1,0.11,0.16,0.17c0.07,0.06,0.14,0.12,0.21,0.18c0.06,0.05,0.12,0.09,0.18,0.14
		c0.08,0.05,0.16,0.1,0.24,0.15c0.06,0.04,0.12,0.07,0.19,0.11c0.09,0.04,0.18,0.08,0.27,0.11c0.06,0.02,0.13,0.05,0.19,0.07
		c0.1,0.03,0.21,0.05,0.32,0.08c0.06,0.01,0.12,0.03,0.18,0.04c0.17,0.03,0.34,0.04,0.52,0.04h155.78c0.2,0,0.4-0.02,0.6-0.06
		c0.06-0.01,0.12-0.03,0.17-0.04c0.14-0.03,0.27-0.07,0.41-0.12c0.06-0.02,0.12-0.05,0.18-0.07c0.14-0.06,0.27-0.13,0.39-0.21
		c0.04-0.03,0.09-0.05,0.13-0.08c0.17-0.11,0.32-0.24,0.46-0.38c0,0,0.01-0.01,0.01-0.01l71.34-71.34c0,0,0,0,0.01-0.01l0.03-0.03
		c0.01-0.01,0.01-0.02,0.02-0.03c0.22-0.23,0.42-0.48,0.57-0.77c0,0,0-0.01,0.01-0.01c0.08-0.15,0.15-0.3,0.2-0.46l77.89-224.22
		l103.42,295.6c0.01,0.04,0.04,0.08,0.05,0.12c0.01,0.02,0.01,0.04,0.01,0.05c0.02,0.06,0.06,0.11,0.08,0.16
		c0.03,0.07,0.07,0.14,0.11,0.21c0.05,0.08,0.1,0.16,0.15,0.23c0.04,0.06,0.09,0.13,0.13,0.19c0.06,0.07,0.12,0.14,0.18,0.2
		c0.05,0.06,0.1,0.11,0.16,0.16c0.07,0.06,0.14,0.12,0.21,0.18c0.06,0.05,0.11,0.09,0.18,0.14c0.08,0.05,0.16,0.1,0.24,0.14
		c0.06,0.04,0.12,0.08,0.19,0.11c0.09,0.04,0.18,0.08,0.27,0.11c0.06,0.02,0.13,0.05,0.19,0.07c0.1,0.03,0.21,0.05,0.32,0.08
		c0.06,0.01,0.11,0.03,0.17,0.04c0.17,0.03,0.34,0.04,0.51,0.04h155.78c0.21,0,0.41-0.02,0.6-0.06c0.06-0.01,0.12-0.03,0.18-0.04
		c0.14-0.03,0.27-0.07,0.41-0.12c0.06-0.02,0.13-0.05,0.19-0.08c0.13-0.06,0.25-0.13,0.38-0.2c0.05-0.03,0.1-0.06,0.15-0.09
		c0.17-0.11,0.32-0.24,0.47-0.38c0,0,0,0,0,0l71.36-71.36c0,0,0.01-0.01,0.01-0.01l0.01-0.01c0,0,0-0.01,0.01-0.01
		c0.22-0.23,0.42-0.49,0.57-0.77c0-0.01,0.01-0.01,0.01-0.02c0.09-0.16,0.16-0.33,0.22-0.51l215.69-649.84
		c0.03-0.08,0.03-0.17,0.05-0.25C1079.93,181.02,1079.95,180.92,1079.97,180.81z M858.57,826.81h-40.63l190.29-573.31l60.82-60.82
		L858.57,826.81z M578.4,457.58c-0.47-1.34-1.74-2.24-3.16-2.24c0,0,0,0,0,0c-0.91,0-1.75,0.37-2.36,0.98l0,0l-71.34,71.34
		c0,0,0,0,0,0l-0.03,0.03l0,0c-0.35,0.35-0.63,0.78-0.8,1.27L397.23,826.81h-104.4L103.05,255.04h86.77l111.74,370.93
		c0.42,1.4,1.7,2.36,3.16,2.38c0.02,0,0.03,0,0.05,0c0.91,0,1.75-0.37,2.37-0.98l0,0l71.23-71.23c0.43-0.39,0.77-0.88,0.96-1.46
		l100-301.49h101.4l123.68,372.86c0.46,1.37,1.74,2.29,3.18,2.29c0.02,0,0.03,0,0.05,0c0.89-0.01,1.72-0.38,2.32-0.98l0,0l0.04-0.04
		c0,0,0,0,0,0l71.34-71.34l0,0c0.38-0.38,0.68-0.86,0.84-1.4l90.24-299.56h128.27L810.88,826.81h-103.3L578.4,457.58z
		 M567.29,471.37L527.22,586.7l-19.51-55.76L567.29,471.37z M312.39,612.64l40.89-123.29l19.07,63.32L312.39,612.64z M714.61,613.23
		l38.35-127.31l22.16,66.8L714.61,613.23z M1068.59,183.66l-64.68,64.68H874.4l19.48-64.68H1068.59z M884.36,192.09l-16.95,56.25
		H828.1L884.36,192.09z M822.51,255.04h42.88l-86.6,287.49l-22.47-67.76L822.51,255.04z M707.42,613.91L586.96,250.75l66.08-66.08
		l96.26,290.2L707.42,613.91z M646.43,181.82l-64.68,64.68H481.54l21.45-64.68H646.43z M492.95,190.83l-18.47,55.67h-37.2
		L492.95,190.83z M431.61,253.19h40.65l-95.97,289.34l-19.35-64.22L431.61,253.19z M304.91,613.91L196.09,252.64l66-66l87.83,291.57
		L304.91,613.91z M255.6,183.66l-64.68,64.68h-90.09l-21.47-64.68H255.6z M73.25,186.51l20.52,61.83H11.42L73.25,186.51z
		 M95.99,255.04l190.59,574.21l-66.08,66.08L7.98,255.04H95.99z M227.12,898.18l64.68-64.68h103.1l-22.47,64.68H227.12z
		 M382.76,888.85l19.23-55.35h36.12L382.76,888.85z M443.81,826.81h-39.49l99.56-286.58l19.82,56.64L443.81,826.81z M575.25,468.85
		l126.1,360.42l-66.12,66.12L530.78,596.86L575.25,468.85z M641.91,898.18l64.68-64.68h102.07l-21.47,64.68H641.91z M797.24,889.17
		l18.48-55.66h37.19L797.24,889.17z"/>
</g>
</svg>
